<?xml version="1.0" standalone="no"?>
<!DOCTYPE svg PUBLIC "-//W3C//DTD SVG 20010904//EN"
 "http://www.w3.org/TR/2001/REC-SVG-20010904/DTD/svg10.dtd">
<svg version="1.0" xmlns="http://www.w3.org/2000/svg"
 width="600.000000pt" height="600.000000pt" viewBox="0 0 600.000000 600.000000"
 preserveAspectRatio="xMidYMid meet">
<metadata>
Created by potrace 1.11, written by Peter Selinger 2001-2013
</metadata>
<g transform="translate(0.000000,600.000000) scale(0.100000,-0.100000)"
fill="#000000" stroke="none">
<path d="M0 3000 l0 -3000 3000 0 3000 0 0 3000 0 3000 -3000 0 -3000 0 0
-3000z m1653 2885 c4 -8 -16 -58 -44 -112 -32 -62 -55 -125 -65 -173 -19 -95
-28 -410 -17 -598 l8 -143 -65 -35 c-339 -186 -531 -441 -557 -741 -3 -40 -9
-73 -12 -73 -3 0 -42 7 -86 14 -205 37 -453 27 -630 -24 -38 -11 -73 -20 -77
-20 -5 0 -8 432 -8 960 l0 960 774 0 c668 0 775 -2 779 -15z m4247 -1800 c0
-998 -2 -1815 -3 -1815 -2 0 -30 9 -63 21 -96 33 -251 68 -372 84 -191 25
-360 20 -701 -21 l-114 -13 -116 118 c-129 132 -235 208 -260 188 -12 -10 -14
-9 -8 6 5 13 -1 25 -21 42 l-27 23 53 -10 c30 -5 58 -8 64 -6 15 5 -141 76
-224 103 l-68 21 98 59 c110 66 186 122 271 201 55 51 60 53 76 38 11 -11 20
-13 26 -7 7 7 2 13 -15 17 -14 3 -26 11 -26 16 0 16 21 22 35 10 12 -10 22
-10 45 0 16 7 30 17 30 23 0 6 8 19 17 29 16 18 16 18 -3 12 -10 -4 -26 -13
-35 -21 -13 -11 -16 -11 -16 1 0 8 11 17 24 21 26 6 31 23 9 31 -11 4 -2 31
40 118 84 175 98 237 98 446 0 158 -3 185 -27 275 -131 488 -565 800 -1281
920 -242 40 -382 50 -717 50 l-315 0 -34 90 c-86 234 -209 433 -349 568 -69
66 -108 96 -159 118 -37 17 -80 37 -97 44 -25 12 289 14 2068 14 l2097 1 0
-1815z m-4080 1275 c-1 -12 -4 -11 -15 4 -8 10 -12 23 -8 29 7 11 23 -12 23
-33z m18 -42 c10 -22 53 -255 56 -308 1 -16 -4 -25 -14 -25 -10 0 -14 8 -13
23 2 12 -2 22 -7 22 -5 0 -7 7 -3 16 4 10 -1 17 -16 21 -23 6 -27 18 -10 28 6
4 8 13 5 20 -2 7 0 17 5 22 13 13 -6 62 -26 69 -17 7 -21 34 -4 34 7 0 9 16 4
50 -7 53 4 66 23 28z m1372 -373 c776 -94 1234 -377 1376 -850 22 -75 27 -115
31 -240 4 -129 2 -162 -16 -240 -94 -395 -484 -723 -980 -823 l-94 -19 71 -22
c90 -29 177 -81 253 -149 113 -102 152 -178 244 -472 72 -234 118 -333 181
-396 82 -82 203 -97 320 -39 101 51 255 221 328 363 18 34 47 42 77 19 62 -48
49 -162 -36 -324 -56 -106 -113 -179 -211 -273 -271 -258 -599 -329 -880 -190
-139 68 -249 194 -326 373 -22 50 -68 200 -104 340 -36 139 -75 279 -85 311
-46 135 -106 218 -193 264 -50 26 -57 27 -248 30 l-197 3 -6 -23 c-17 -74
-156 -909 -166 -997 -11 -100 -8 -227 6 -297 7 -31 6 -31 -57 -50 -51 -15 -94
-19 -223 -19 -143 1 -166 3 -218 24 -76 30 -119 69 -148 133 -22 48 -24 66
-23 183 1 122 14 203 204 1285 l203 1155 1 165 c1 91 -1 179 -4 195 -5 29 -2
31 50 49 69 24 334 29 417 8 161 -42 228 -175 203 -401 -8 -75 -161 -978 -186
-1105 l-6 -29 183 6 c328 11 519 78 697 242 203 188 306 495 272 806 -45 410
-318 640 -862 726 -162 26 -604 26 -733 0 -273 -54 -478 -161 -587 -304 -83
-109 -125 -250 -108 -360 20 -123 88 -178 212 -171 l68 4 0 -43 c0 -159 -162
-277 -380 -277 -218 1 -388 92 -468 253 -43 85 -55 157 -50 281 22 491 531
832 1358 910 149 14 683 5 840 -15z m-343 -372 c2 -6 -10 -14 -27 -18 -17 -4
-34 -13 -37 -21 -3 -9 -14 -12 -32 -8 -14 3 -91 8 -171 11 -174 6 -259 -9
-367 -63 -40 -20 -73 -40 -73 -43 0 -4 9 -32 20 -62 25 -73 29 -272 4 -262 -9
3 -14 0 -12 -8 2 -9 -11 -16 -37 -20 -37 -6 -38 -6 -8 -8 36 -1 53 -19 32 -32
-11 -7 -9 -10 9 -15 26 -7 27 -13 9 -38 -11 -14 -18 -16 -33 -9 -10 6 -28 7
-38 3 -18 -6 -18 -7 -2 -13 10 -4 22 -5 26 -2 5 3 11 1 15 -4 3 -6 13 -7 23
-4 13 4 13 2 -3 -10 -17 -14 -18 -18 -6 -26 11 -7 9 -10 -10 -13 l-24 -5 25
-11 c16 -7 19 -11 9 -11 -9 -1 -22 -8 -29 -16 -10 -13 -9 -15 9 -15 18 0 21
-5 17 -27 -3 -16 -12 -71 -21 -123 -9 -52 -18 -101 -20 -108 -8 -22 -52 15
-83 70 -24 41 -28 57 -22 83 10 45 4 98 -21 173 -17 51 -24 62 -39 57 -14 -4
-17 0 -15 18 2 13 -1 30 -6 38 -7 11 -9 11 -9 1 0 -7 -5 -10 -11 -6 -15 9 -5
268 13 339 12 45 18 53 68 83 98 58 278 113 428 131 113 13 444 9 449 -6z
m123 -38 c0 -8 8 -15 18 -16 12 0 13 -2 3 -6 -10 -4 -5 -10 15 -18 l29 -12
-47 -8 c-25 -4 -56 -4 -68 0 -15 5 -20 4 -16 -4 10 -15 -6 -14 -29 3 -19 14
-19 15 7 27 15 6 25 15 22 20 -6 10 25 28 49 29 9 0 17 -7 17 -15z m248 -5
c185 -48 302 -109 408 -215 137 -136 179 -250 178 -485 0 -178 -23 -281 -91
-420 -38 -77 -63 -111 -128 -176 -77 -78 -171 -143 -246 -169 -29 -10 -51 -10
-118 0 -45 8 -138 17 -206 21 -145 8 -135 -5 -109 139 l16 90 78 80 c91 94
189 231 236 329 89 186 83 401 -17 643 -24 56 -34 71 -47 66 -13 -4 -14 -3 -3
5 10 7 11 14 2 31 -7 12 -17 18 -23 15 -7 -4 -8 -3 -4 4 4 7 4 12 -1 12 -4 0
-9 11 -9 25 -1 14 0 25 3 25 3 0 39 -9 81 -20z m-1450 -599 c-16 -6 -48 31
-58 68 -20 73 -9 75 29 6 21 -38 34 -72 29 -74z m-1203 -277 c400 -36 466 -50
539 -111 77 -64 247 -123 358 -123 32 0 58 -2 58 -5 0 -4 -7 -19 -15 -35 -25
-49 -48 -179 -41 -235 7 -61 38 -154 66 -200 18 -29 26 -33 82 -39 87 -10 213
-52 282 -93 57 -35 58 -37 52 -72 -3 -20 -6 -47 -6 -61 0 -14 -4 -30 -8 -37
-4 -7 -69 -18 -164 -28 -271 -27 -398 -54 -630 -135 -78 -27 -143 -48 -145
-46 -6 6 202 85 285 108 68 19 81 26 76 41 -3 11 0 17 9 17 8 0 20 6 26 14 10
12 8 17 -11 27 -13 6 -24 13 -26 14 -1 1 4 15 13 31 8 16 15 24 15 18 0 -9 38
-33 63 -40 4 -1 10 -2 15 -3 4 -2 -2 -6 -13 -10 -11 -5 -20 -12 -20 -17 0 -5
-4 -16 -10 -24 -8 -13 -7 -13 8 -1 9 7 17 10 18 5 0 -5 5 2 11 16 6 14 10 29
9 34 -1 5 5 4 13 -4 14 -10 16 -10 16 5 0 12 -6 16 -20 12 -21 -5 -28 7 -10
18 7 4 7 12 0 25 -7 13 -5 21 7 31 12 10 15 10 9 2 -4 -7 -2 -13 3 -13 19 0
12 22 -9 27 -15 4 -18 11 -14 29 5 18 2 24 -10 24 -9 0 -16 -4 -16 -10 0 -5
-7 -7 -15 -4 -8 4 -15 10 -15 16 0 5 5 6 10 3 6 -3 10 -2 10 3 0 12 -47 25
-60 17 -6 -4 -10 -1 -10 4 0 14 -83 14 -96 1 -13 -13 -106 -22 -99 -9 4 5 2 9
-4 9 -5 0 -12 -4 -16 -9 -3 -6 -13 -10 -23 -10 -38 -1 -92 -14 -92 -21 0 -5
-15 -11 -32 -15 -47 -8 -228 -97 -228 -111 0 -6 17 -45 39 -85 89 -171 117
-302 108 -502 -6 -116 -29 -283 -42 -295 -2 -3 -1 20 3 49 9 70 9 392 0 444
-21 118 -86 284 -129 331 -11 12 -19 25 -17 30 1 5 -16 37 -40 71 -23 34 -42
64 -42 67 0 22 -202 226 -225 226 -11 0 -30 7 -42 15 -31 22 -149 27 -186 9
-16 -9 -38 -14 -48 -11 -11 3 -19 2 -19 -3 0 -4 -9 -10 -20 -13 -20 -5 -20 0
-20 335 l0 341 108 -7 c59 -4 229 -18 377 -32z m1482 -56 l46 -48 -16 -91 c-9
-51 -19 -94 -22 -97 -3 -3 -22 8 -43 24 -21 16 -68 51 -105 79 l-66 49 48 51
c27 28 56 66 66 85 17 32 18 33 31 14 8 -10 35 -40 61 -66z m1943 -858 c0 -5
-7 -10 -16 -10 -8 0 -12 5 -9 10 3 6 10 10 16 10 5 0 9 -4 9 -10z m-3879 -45
c8 17 9 16 6 -7 -5 -31 24 -68 51 -68 13 0 10 -7 -13 -26 -26 -23 -27 -26 -7
-20 13 5 22 3 22 -4 0 -6 11 -15 25 -20 23 -9 31 -29 26 -67 -1 -7 3 -13 9
-13 5 0 10 5 10 11 0 8 5 8 15 -1 8 -7 12 -16 9 -21 -3 -5 -2 -9 3 -8 20 3 34
-2 28 -11 -3 -5 5 -15 19 -21 14 -7 23 -16 20 -21 -3 -4 -10 -5 -16 -2 -18 11
4 -19 24 -34 10 -7 16 -18 13 -23 -4 -5 2 -10 12 -10 17 -1 17 -2 1 -6 -21 -5
-24 -33 -6 -51 18 -18 31 -14 25 8 -6 21 -2 21 46 -12 23 -17 27 -17 27 -4 0
9 3 15 8 15 21 -4 32 2 27 14 -4 6 1 3 9 -7 14 -18 21 -15 17 7 -1 5 8 6 19 2
12 -4 20 -2 20 5 0 8 6 8 21 -1 12 -6 19 -7 15 -1 -3 6 2 8 13 5 11 -3 21 -13
24 -24 3 -10 10 -19 16 -19 9 0 9 5 1 20 -9 17 -8 20 9 20 13 0 18 -5 15 -14
-3 -7 1 -30 10 -49 8 -19 11 -38 8 -42 -4 -4 -7 -12 -7 -18 -1 -7 -6 -11 -13
-9 -7 1 -12 -4 -12 -11 0 -6 -15 -18 -32 -26 -18 -8 -35 -17 -38 -21 -3 -3
-39 -19 -80 -34 -41 -16 -83 -35 -92 -44 -13 -11 -24 -12 -48 -4 -25 9 -30 8
-30 -4 0 -8 -5 -12 -10 -9 -6 4 -7 12 -4 18 4 7 -4 3 -17 -9 -23 -20 -69 -22
-69 -3 0 12 7 11 30 -1 15 -8 21 -6 29 9 9 16 7 18 -21 15 -20 -3 -45 -18 -70
-44 -22 -22 -41 -40 -44 -40 -2 0 -22 16 -44 36 l-40 36 0 328 c0 181 3 337 7
347 7 16 8 15 12 -7 3 -23 4 -24 12 -5z m3969 15 c0 -5 -9 -10 -20 -10 -11 0
-20 5 -20 10 0 6 9 10 20 10 11 0 20 -4 20 -10z m36 -32 c4 -7 4 -10 -1 -6 -4
4 -14 3 -22 -3 -8 -8 -13 -8 -13 -1 0 6 6 13 13 15 6 3 13 6 14 6 1 1 5 -5 9
-11z m-3976 -18 c0 -5 -2 -10 -4 -10 -3 0 -8 5 -11 10 -3 6 -1 10 4 10 6 0 11
-4 11 -10z m1203 -42 c-10 -18 -20 -6 -15 19 5 24 6 25 12 8 4 -11 6 -23 3
-27z m2642 23 c-3 -6 -14 -11 -23 -11 -13 0 -13 2 4 14 21 15 30 14 19 -3z
m200 9 c8 -13 -5 -13 -25 0 -13 8 -13 10 2 10 9 0 20 -4 23 -10z m-82 -17 c-7
-2 -19 -2 -25 0 -7 3 -2 5 12 5 14 0 19 -2 13 -5z m-2777 -60 c-10 -10 -19 5
-10 18 6 11 8 11 12 0 2 -7 1 -15 -2 -18z m594 -22 c0 -5 -9 -38 -20 -74 -32
-104 -58 -111 -106 -30 l-25 42 68 35 c73 38 83 41 83 27z m1175 -58 c81 -43
132 -128 179 -301 21 -78 23 -94 11 -99 -12 -4 -10 -9 8 -24 l22 -18 -42 -1
c-23 0 -45 5 -49 11 -20 33 -175 -25 -308 -115 l-70 -47 -73 17 c-40 10 -77
20 -82 23 -9 6 67 468 89 545 l12 39 131 -5 c108 -4 139 -8 172 -25z m-1348
-124 c33 -75 41 -144 27 -217 l-6 -31 -81 30 c-45 17 -143 40 -221 53 l-140
22 115 71 c182 112 253 152 264 149 6 -1 25 -36 42 -77z m-777 51 c-8 -5 -19
-10 -25 -10 -5 0 -3 5 5 10 8 5 20 10 25 10 6 0 3 -5 -5 -10z m3194 -162 c-4
-7 2 -8 17 -3 13 4 26 7 29 7 28 1 40 -4 35 -12 -4 -6 -16 -8 -27 -4 -11 3
-18 2 -15 -3 7 -12 -46 -11 -55 1 -9 13 2 37 13 30 5 -3 6 -10 3 -16z m486
-118 c0 -5 -2 -10 -4 -10 -3 0 -8 5 -11 10 -3 6 -1 10 4 10 6 0 11 -4 11 -10z
m-1338 -169 c19 -7 27 -21 36 -63 7 -29 24 -93 39 -141 24 -80 25 -89 10 -104
-14 -14 -19 -13 -55 16 -34 26 -216 118 -341 172 l-34 15 52 33 c109 71 224
98 293 72z m1185 3 c-3 -3 -12 -4 -19 -1 -8 3 -5 6 6 6 11 1 17 -2 13 -5z
m1383 -301 l0 -276 -27 40 c-49 72 -132 155 -150 151 -11 -2 -22 -18 -27 -40
-8 -31 -6 -41 9 -58 18 -20 18 -21 -1 -14 -10 4 -41 21 -68 37 -107 62 -500
247 -526 247 -18 0 -18 18 -1 76 18 58 19 59 62 66 48 7 470 36 589 41 41 2
90 4 108 5 l32 2 0 -277z m-5769 63 c10 -17 19 -37 19 -43 0 -15 36 -53 50
-53 5 0 7 -6 4 -14 -3 -8 4 -16 17 -19 13 -4 20 -9 17 -13 -11 -11 19 -34 51
-40 34 -7 40 -27 14 -43 -15 -9 -14 -10 10 -11 19 0 26 -4 21 -11 -5 -9 1 -10
22 -5 21 5 25 4 14 -3 -8 -6 -15 -23 -16 -40 -1 -24 3 -31 20 -33 18 -3 20 -9
18 -38 -2 -19 -8 -36 -13 -38 -15 -6 -10 -20 10 -27 13 -4 17 -12 14 -25 -3
-11 -1 -20 5 -20 6 0 8 -9 5 -21 -5 -16 -2 -20 13 -17 13 2 18 -3 19 -21 0
-13 5 -26 11 -28 6 -2 42 23 80 56 102 89 187 149 262 186 66 33 512 178 521
170 9 -9 -108 -55 -190 -75 -178 -42 -355 -116 -419 -174 -14 -12 -38 -30 -54
-40 -51 -32 -197 -179 -253 -254 -68 -91 -153 -270 -192 -405 -27 -91 -72
-312 -99 -482 -7 -42 -10 93 -11 457 -1 368 2 519 10 524 6 4 51 -33 105 -87
51 -51 95 -91 97 -88 2 2 28 40 57 83 45 68 50 80 36 88 -9 5 -16 16 -16 24 0
13 -13 45 -63 153 -15 32 -17 46 -9 49 7 2 12 8 12 13 0 4 -6 6 -13 3 -9 -3
-18 9 -27 36 -7 22 -17 40 -22 40 -11 0 0 -46 24 -93 19 -38 19 -38 -1 -27
-12 6 -20 14 -19 18 3 10 -29 68 -68 124 -19 26 -34 52 -34 58 0 5 -15 26 -32
46 -32 36 -33 40 -35 133 -1 53 1 87 4 77 3 -10 14 -33 24 -50z m299 -37 c-11
-8 -8 -9 15 -3 17 4 46 8 66 9 29 2 36 -1 35 -13 -2 -9 8 -25 21 -35 l24 -19
-21 -18 c-25 -22 -25 -36 0 -50 32 -17 50 -63 47 -124 -1 -31 -5 -56 -9 -56
-5 0 -8 -7 -8 -15 0 -8 -7 -15 -15 -15 -18 0 -19 12 -3 28 9 9 8 12 -5 12 -16
0 -27 18 -73 130 -10 25 -24 50 -30 55 -22 19 -61 80 -67 103 -4 18 -1 22 16
22 18 0 20 -2 7 -11z m1282 -28 c-4 -30 -5 -31 -46 -25 -39 6 -65 19 -55 27 8
8 94 34 100 31 3 -2 4 -17 1 -33z m1758 -75 c54 -134 190 -295 311 -368 260
-157 583 -139 878 49 76 49 99 41 154 -51 28 -49 47 -53 47 -10 0 13 3 24 6
24 4 0 119 -57 256 -127 l250 -127 -46 -23 c-58 -30 -91 -79 -111 -168 -18
-76 -14 -161 10 -250 40 -142 54 -178 116 -306 l68 -139 -841 0 -840 0 6 22
c32 115 30 279 -5 452 -11 54 -24 155 -29 225 -18 255 -32 334 -81 458 -40
102 -125 269 -165 326 -32 44 -36 67 -15 67 5 0 19 -24 31 -54z m-2643 -83
c-3 -3 -11 -2 -17 2 -8 5 -7 11 2 22 12 15 13 14 16 -1 2 -10 1 -20 -1 -23z
m-182 -23 c3 -5 1 -10 -4 -10 -6 0 -11 5 -11 10 0 6 2 10 4 10 3 0 8 -4 11
-10z m2105 -183 c46 -77 89 -141 96 -144 7 -2 50 12 96 32 122 54 236 95 261
94 20 -1 20 -2 2 -6 -43 -10 -264 -97 -390 -154 -39 -18 -230 -69 -257 -69
-32 0 -35 14 -14 64 10 24 31 42 77 68 35 20 63 40 62 44 -2 5 -12 34 -23 64
-11 33 -19 81 -20 120 0 75 -10 86 110 -113z m-2422 -39 c16 -42 8 -47 -12 -7
-18 37 -19 39 -8 39 4 0 13 -14 20 -32z m2967 12 c3 -6 -1 -7 -9 -4 -18 7 -21
14 -7 14 6 0 13 -4 16 -10z m-1342 -93 c71 -48 139 -62 307 -62 85 0 176 4
203 8 31 5 47 5 47 -2 0 -15 -41 -78 -374 -578 -208 -314 -306 -453 -319 -453
-14 0 -5 17 38 78 30 42 73 111 96 152 23 41 49 84 59 95 31 36 143 216 137
221 -3 3 -10 -1 -16 -8 -5 -7 -33 -39 -61 -71 -27 -31 -50 -61 -50 -65 0 -5
-12 -15 -27 -23 -40 -20 -73 -51 -67 -60 3 -5 -6 -14 -20 -21 -26 -11 -35 -33
-15 -40 15 -5 -4 -51 -32 -77 -28 -26 -44 -17 -23 14 17 27 10 50 -13 41 -8
-3 -12 -2 -10 2 32 67 44 82 61 80 15 -2 19 4 20 29 1 17 -2 29 -6 26 -5 -2
-8 -13 -8 -24 0 -11 -5 -17 -10 -14 -6 4 -8 10 -5 14 7 13 -38 29 -78 27 -40
-1 -63 -22 -46 -42 7 -9 5 -12 -6 -10 -9 1 -21 9 -27 17 -7 11 -9 9 -5 -9 5
-22 -3 -29 -17 -15 -4 5 -13 8 -18 8 -6 0 -13 6 -15 13 -3 6 0 12 6 12 6 0 8
7 4 15 -5 14 -8 14 -24 -1 -11 -9 -19 -25 -19 -36 0 -10 -4 -18 -10 -18 -5 0
-10 5 -10 10 0 6 -9 1 -21 -11 -25 -25 -20 -33 14 -20 30 11 37 6 37 -27 0
-20 -2 -22 -15 -12 -8 6 -19 9 -25 5 -20 -12 -10 -25 21 -25 35 0 36 -19 1
-35 -12 -5 -22 -12 -22 -15 0 -4 -7 -15 -16 -26 -8 -10 -13 -13 -9 -6 6 12
-26 18 -38 6 -11 -11 5 -34 24 -34 10 0 19 -4 19 -9 0 -15 -31 -21 -52 -10
-16 9 -24 7 -36 -5 -9 -9 -11 -16 -5 -16 6 0 13 -7 16 -14 4 -10 1 -13 -7 -10
-7 3 -19 -2 -26 -11 -11 -13 -9 -15 11 -16 l24 -1 -25 -8 c-14 -4 -30 -8 -36
-9 -16 -1 -10 36 9 57 9 10 14 22 10 26 -4 4 -1 11 7 16 13 8 24 50 13 50 -15
0 -55 -51 -50 -64 4 -10 1 -16 -7 -16 -14 0 -16 -23 -4 -36 4 -3 -1 -14 -10
-25 -14 -16 -30 -19 -105 -19 -49 0 -87 3 -85 8 2 4 14 27 26 52 12 25 36 65
52 90 16 25 34 54 39 65 5 11 32 57 60 102 28 46 51 86 51 89 0 8 67 110 273
419 182 272 191 284 199 285 4 0 23 -10 41 -23z m627 -170 c0 -7 -13 -18 -30
-24 -26 -10 -30 -9 -30 6 0 10 3 21 7 24 12 12 53 7 53 -6z m356 -16 c-3 -4
35 -74 84 -154 111 -183 420 -727 420 -741 0 -3 -167 -6 -371 -6 l-370 0 -102
104 c-56 57 -128 121 -159 141 -37 24 -58 45 -58 57 0 10 15 81 33 156 19 75
42 180 52 232 23 124 22 120 56 113 16 -3 63 -2 106 3 59 6 71 9 48 14 -25 5
-17 9 54 24 46 10 107 29 135 42 53 24 81 30 72 15z m-720 -402 c-3 -17 -6
-40 -6 -50 0 -20 -25 -25 -48 -10 -11 6 -8 17 15 49 34 49 48 53 39 11z m-418
-140 c-2 -6 -8 -10 -13 -10 -5 0 -11 4 -13 10 -2 6 4 11 13 11 9 0 15 -5 13
-11z m367 -12 c26 -22 27 -23 15 -87 -6 -36 -17 -92 -25 -125 -7 -33 -16 -77
-20 -98 l-6 -37 -129 0 c-72 0 -130 2 -130 5 0 3 24 42 54 88 30 45 79 126
111 180 62 107 80 118 130 74z m3665 -28 c0 -17 -23 -34 -50 -35 l-24 -2 27
24 c30 26 47 31 47 13z m-4166 -44 c-4 -8 -11 -15 -16 -15 -6 0 -5 6 2 15 7 8
14 15 16 15 2 0 1 -7 -2 -15z m46 -30 c0 -8 -5 -15 -11 -15 -7 0 -18 -8 -25
-17 -13 -17 -14 -17 -8 2 6 17 31 45 41 45 2 0 3 -7 3 -15z m88 -50 c-12 -14
-29 -25 -38 -25 -9 0 -25 -7 -36 -15 -10 -8 -27 -15 -37 -15 -27 0 -15 24 14
28 13 2 33 12 44 22 41 36 84 40 53 5z m-154 -50 c-4 -8 -8 -15 -10 -15 -2 0
-4 7 -4 15 0 8 4 15 10 15 5 0 7 -7 4 -15z m4256 -65 l0 -80 -157 0 -158 0 56
23 c59 25 228 113 244 128 5 5 10 9 12 9 2 0 3 -36 3 -80z m-4350 -70 c0 -5
-9 -10 -20 -10 -11 0 -20 5 -20 10 0 6 9 10 20 10 11 0 20 -4 20 -10z"/>
<path d="M4603 3182 c-7 -4 -9 -13 -4 -21 6 -9 10 -7 14 8 3 12 4 21 4 21 -1
0 -7 -4 -14 -8z"/>
<path d="M4731 2992 c-1 -7 -19 -50 -40 -96 -53 -110 -92 -216 -85 -228 3 -5
-2 -18 -11 -28 -13 -15 -22 -17 -36 -10 -10 6 -24 10 -31 10 -7 -1 2 -7 21
-15 18 -8 69 -50 112 -92 44 -42 79 -73 79 -68 0 4 -23 50 -51 103 -65 121
-66 149 -12 257 46 92 67 150 60 168 -4 9 -6 9 -6 -1z"/>
<path d="M2000 4060 c0 -5 5 -10 10 -10 6 0 10 5 10 10 0 6 -4 10 -10 10 -5 0
-10 -4 -10 -10z"/>
<path d="M1567 2825 c-4 -8 -2 -17 3 -20 6 -4 10 3 10 14 0 25 -6 27 -13 6z"/>
<path d="M1866 2794 c-5 -14 -4 -15 9 -4 17 14 19 20 6 20 -5 0 -12 -7 -15
-16z"/>
<path d="M773 2753 c-34 -4 -42 -20 -22 -40 11 -11 50 3 99 36 16 11 -8 12
-77 4z"/>
<path d="M1781 2731 c-9 -15 -7 -20 10 -24 16 -4 18 -3 9 8 -7 8 -9 19 -5 25
3 5 4 10 1 10 -3 0 -10 -9 -15 -19z"/>
<path d="M1571 2699 c-19 -7 -22 -12 -13 -21 9 -9 17 -7 34 10 24 23 18 27
-21 11z"/>
<path d="M1865 2680 c-3 -5 -2 -10 4 -10 5 0 13 5 16 10 3 6 2 10 -4 10 -5 0
-13 -4 -16 -10z"/>
<path d="M1384 2669 c-4 -7 -3 -9 3 -6 6 4 13 0 17 -8 8 -21 25 -19 22 3 -3
20 -31 28 -42 11z"/>
<path d="M1397 2586 c-4 -10 -1 -13 9 -9 15 6 19 23 5 23 -5 0 -11 -7 -14 -14z"/>
<path d="M437 2254 c-9 -9 4 -35 14 -28 5 3 9 12 9 20 0 14 -12 19 -23 8z"/>
<path d="M340 2069 c0 -5 5 -7 10 -4 6 3 10 8 10 11 0 2 -4 4 -10 4 -5 0 -10
-5 -10 -11z"/>
<path d="M2060 1086 c0 -24 17 -28 23 -6 3 13 0 20 -9 20 -8 0 -14 -6 -14 -14z"/>
<path d="M2030 1006 c0 -22 -3 -26 -13 -18 -8 7 -18 7 -27 2 -12 -8 -11 -10 5
-11 11 -1 25 -3 30 -4 6 -2 14 -3 19 -4 5 0 3 -8 -4 -16 -10 -12 -10 -15 1
-15 37 1 42 17 15 56 l-26 39 0 -29z"/>
<path d="M2126 994 c-5 -14 -4 -15 9 -4 17 14 19 20 6 20 -5 0 -12 -7 -15 -16z"/>
<path d="M1970 942 c-8 -3 -19 -11 -23 -19 -5 -8 -17 -11 -33 -7 -14 4 -24 2
-24 -5 0 -6 5 -11 11 -11 5 0 8 -4 5 -8 -3 -5 8 -6 25 -4 20 3 29 10 29 23 0
11 5 19 10 19 9 0 12 -8 14 -55 1 -15 7 -19 26 -17 13 1 28 9 33 17 4 8 18 15
30 16 21 0 21 1 2 8 -12 5 -25 3 -33 -6 -18 -18 -42 0 -35 26 5 20 -13 31 -37
23z"/>
<path d="M2235 910 c-3 -5 1 -10 10 -10 9 0 13 5 10 10 -3 6 -8 10 -10 10 -2
0 -7 -4 -10 -10z"/>
<path d="M1864 878 c-4 -6 -3 -8 4 -4 5 3 13 0 15 -6 3 -8 6 -6 6 5 1 19 -14
23 -25 5z"/>
<path d="M1928 873 c-16 -4 -33 -32 -24 -40 6 -7 56 28 56 38 0 9 -4 10 -32 2z"/>
<path d="M2080 844 c0 -8 5 -12 10 -9 6 4 8 11 5 16 -9 14 -15 11 -15 -7z"/>
<path d="M1860 840 c-9 -6 -10 -10 -3 -10 6 0 15 5 18 10 8 12 4 12 -15 0z"/>
<path d="M2022 829 c-18 -29 -9 -34 23 -13 20 13 23 19 13 25 -19 12 -22 11
-36 -12z"/>
<path d="M1855 809 c-4 -5 -18 -15 -32 -20 -14 -5 -23 -12 -20 -16 3 -3 14 -2
24 2 10 5 20 8 24 7 3 0 10 8 17 19 7 10 8 19 3 19 -6 0 -13 -5 -16 -11z"/>
<path d="M1874 775 c-8 -20 -20 -35 -27 -34 -7 1 -20 -1 -29 -5 -10 -5 -23 -6
-30 -4 -21 7 -43 -21 -29 -35 10 -9 14 -8 22 6 16 27 32 21 24 -10 -6 -24 -5
-25 12 -12 24 19 33 32 27 41 -3 4 2 5 10 2 8 -3 24 4 35 15 26 26 26 31 4 31
-17 1 -17 1 0 14 19 15 22 26 6 26 -5 0 -17 -16 -25 -35z"/>
<path d="M2050 739 c0 -5 5 -7 10 -4 6 3 10 8 10 11 0 2 -4 4 -10 4 -5 0 -10
-5 -10 -11z"/>
<path d="M2200 740 c0 -5 5 -10 10 -10 6 0 10 5 10 10 0 6 -4 10 -10 10 -5 0
-10 -4 -10 -10z"/>
<path d="M1624 683 c-11 -16 -24 -35 -29 -43 -8 -13 -7 -13 9 -1 16 13 51 71
43 71 -2 0 -12 -12 -23 -27z"/>
<path d="M2166 685 c-3 -8 -1 -15 4 -15 6 0 10 7 10 15 0 8 -2 15 -4 15 -2 0
-6 -7 -10 -15z"/>
<path d="M1870 682 c0 -7 5 -12 11 -12 12 0 1 -43 -12 -48 -5 -2 -9 -10 -9
-18 0 -8 -7 -14 -15 -14 -20 0 -19 6 5 30 23 23 26 42 6 34 -27 -10 -67 -94
-45 -94 5 0 9 -9 9 -20 0 -11 4 -20 9 -20 5 0 7 -9 4 -20 -8 -29 15 -25 47 10
18 19 24 33 17 37 -10 6 30 28 46 25 4 -1 7 2 7 8 0 6 -4 10 -10 10 -5 0 -17
15 -26 33 -9 17 -13 29 -9 25 4 -4 16 -3 26 3 13 7 19 6 19 -1 0 -6 5 -8 11
-4 6 3 15 1 19 -6 7 -11 11 -10 24 2 14 15 13 17 -9 22 -14 4 -25 11 -25 17 0
8 -6 7 -16 -2 -23 -19 -46 -20 -66 -2 -11 10 -18 12 -18 5z m0 -142 c0 -5 -4
-10 -10 -10 -5 0 -10 5 -10 10 0 6 5 10 10 10 6 0 10 -4 10 -10z"/>
<path d="M1566 615 c-3 -9 0 -15 9 -15 16 0 20 16 6 24 -5 3 -11 -1 -15 -9z"/>
<path d="M1653 568 c0 -21 4 -28 19 -28 10 0 16 -4 13 -10 -9 -15 32 -53 50
-46 9 3 13 11 9 17 -5 8 -1 8 14 0 31 -17 42 -13 42 13 0 20 -4 24 -25 21 -19
-2 -25 2 -25 17 0 14 -5 18 -15 14 -10 -3 -15 1 -15 11 0 13 -3 14 -12 5 -16
-16 -45 -15 -51 1 -2 6 -4 0 -4 -15z"/>
<path d="M1570 479 c0 -5 -4 -8 -9 -5 -5 4 -7 -3 -4 -14 7 -25 25 -26 47 -1
15 17 15 19 1 25 -24 9 -35 7 -35 -5z"/>
<path d="M1529 334 c-10 -13 -10 -17 1 -24 19 -12 40 -1 40 21 0 23 -23 25
-41 3z"/>
<path d="M1475 300 c-3 -5 -2 -10 4 -10 5 0 13 5 16 10 3 6 2 10 -4 10 -5 0
-13 -4 -16 -10z"/>
</g>
</svg>
